<svg width="28" height="24" viewBox="0 0 28 24" fill="none" xmlns="http://www.w3.org/2000/svg">
<path d="M20.171 7.93643C20.999 7.10843 21.821 5.17643 18.371 7.52243C15.1482 9.74044 11.9035 11.9265 8.6375 14.0804C8.14016 14.3053 7.60249 14.4274 7.0568 14.4392C6.5111 14.4511 5.96864 14.3525 5.462 14.1494C3.392 13.5284 0.975499 12.7004 0.975499 12.7004C0.975499 12.7004 -0.674501 11.6639 2.15 10.5599C2.15 10.5599 14.0915 5.65943 18.233 3.93293C19.82 3.24293 25.2035 1.03493 25.2035 1.03493C25.2035 1.03493 27.689 0.0674256 27.482 2.41493C27.413 3.38093 26.861 6.76493 26.309 10.4219C25.4795 15.5984 24.5825 21.2594 24.5825 21.2594C24.5825 21.2594 24.4445 22.8464 23.2715 23.1224C22.0158 23.1012 20.8026 22.6644 19.8215 21.8804C19.5455 21.6734 14.645 18.5669 12.8495 17.0489C12.6669 16.9252 12.5185 16.7573 12.4182 16.5608C12.3178 16.3643 12.2688 16.1457 12.2757 15.9252C12.2826 15.7047 12.3452 15.4895 12.4575 15.2997C12.5699 15.1098 12.7285 14.9515 12.9185 14.8394C15.3811 12.5863 17.7991 10.2849 20.171 7.93643Z" fill="#221F1C"/>
</svg>
